<mxfile host="app.diagrams.net" agent="Mozilla/5.0 (Macintosh; Intel Mac OS X 10_15_7) AppleWebKit/537.36 (KHTML, like Gecko) Chrome/131.0.0.0 Safari/537.36" version="26.0.16">
  <diagram name="Page-1" id="OosCTeIA6I6goEZMjJ5i">
    <mxGraphModel dx="794" dy="539" grid="1" gridSize="10" guides="1" tooltips="1" connect="1" arrows="1" fold="1" page="1" pageScale="1" pageWidth="827" pageHeight="1169" math="0" shadow="0">
      <root>
        <mxCell id="0" />
        <mxCell id="1" parent="0" />
        <mxCell id="0yJTxuCL6KUhxwQ3sqIx-7" value="" style="rounded=0;whiteSpace=wrap;html=1;" vertex="1" parent="1">
          <mxGeometry x="280" y="40" width="410" height="430" as="geometry" />
        </mxCell>
        <mxCell id="0yJTxuCL6KUhxwQ3sqIx-8" value="To-do CoverageX" style="text;html=1;align=center;verticalAlign=middle;whiteSpace=wrap;rounded=0;" vertex="1" parent="1">
          <mxGeometry x="425" y="50" width="120" height="30" as="geometry" />
        </mxCell>
        <mxCell id="0yJTxuCL6KUhxwQ3sqIx-9" value="User" style="shape=umlActor;verticalLabelPosition=bottom;verticalAlign=top;html=1;outlineConnect=0;" vertex="1" parent="1">
          <mxGeometry x="200" y="130" width="30" height="60" as="geometry" />
        </mxCell>
        <mxCell id="0yJTxuCL6KUhxwQ3sqIx-10" value="System" style="shape=umlActor;verticalLabelPosition=bottom;verticalAlign=top;html=1;outlineConnect=0;" vertex="1" parent="1">
          <mxGeometry x="720" y="140" width="30" height="60" as="geometry" />
        </mxCell>
        <mxCell id="0yJTxuCL6KUhxwQ3sqIx-11" value="Login" style="ellipse;whiteSpace=wrap;html=1;" vertex="1" parent="1">
          <mxGeometry x="350" y="100" width="110" height="40" as="geometry" />
        </mxCell>
        <mxCell id="0yJTxuCL6KUhxwQ3sqIx-12" value="Register" style="ellipse;whiteSpace=wrap;html=1;" vertex="1" parent="1">
          <mxGeometry x="350" y="170" width="110" height="40" as="geometry" />
        </mxCell>
        <mxCell id="0yJTxuCL6KUhxwQ3sqIx-13" value="Create tasks" style="ellipse;whiteSpace=wrap;html=1;" vertex="1" parent="1">
          <mxGeometry x="350" y="240" width="110" height="40" as="geometry" />
        </mxCell>
        <mxCell id="0yJTxuCL6KUhxwQ3sqIx-14" value="View tasks" style="ellipse;whiteSpace=wrap;html=1;" vertex="1" parent="1">
          <mxGeometry x="350" y="330" width="110" height="40" as="geometry" />
        </mxCell>
        <mxCell id="0yJTxuCL6KUhxwQ3sqIx-15" value="List tasks" style="ellipse;whiteSpace=wrap;html=1;" vertex="1" parent="1">
          <mxGeometry x="520" y="280" width="110" height="40" as="geometry" />
        </mxCell>
        <mxCell id="0yJTxuCL6KUhxwQ3sqIx-16" value="Validate" style="ellipse;whiteSpace=wrap;html=1;" vertex="1" parent="1">
          <mxGeometry x="520" y="130" width="110" height="40" as="geometry" />
        </mxCell>
        <mxCell id="0yJTxuCL6KUhxwQ3sqIx-17" value="&amp;lt;&amp;lt;include&amp;gt;&amp;gt;" style="html=1;verticalAlign=bottom;labelBackgroundColor=none;endArrow=open;endFill=0;dashed=1;rounded=0;exitX=1;exitY=0.5;exitDx=0;exitDy=0;entryX=0;entryY=0.5;entryDx=0;entryDy=0;" edge="1" parent="1" source="0yJTxuCL6KUhxwQ3sqIx-11" target="0yJTxuCL6KUhxwQ3sqIx-16">
          <mxGeometry width="160" relative="1" as="geometry">
            <mxPoint x="450" y="229" as="sourcePoint" />
            <mxPoint x="610" y="229" as="targetPoint" />
          </mxGeometry>
        </mxCell>
        <mxCell id="0yJTxuCL6KUhxwQ3sqIx-18" value="" style="endArrow=none;html=1;rounded=0;entryX=0;entryY=0.5;entryDx=0;entryDy=0;exitX=1;exitY=0.3333333333333333;exitDx=0;exitDy=0;exitPerimeter=0;" edge="1" parent="1" source="0yJTxuCL6KUhxwQ3sqIx-9" target="0yJTxuCL6KUhxwQ3sqIx-11">
          <mxGeometry width="50" height="50" relative="1" as="geometry">
            <mxPoint x="210" y="280" as="sourcePoint" />
            <mxPoint x="260" y="230" as="targetPoint" />
          </mxGeometry>
        </mxCell>
        <mxCell id="0yJTxuCL6KUhxwQ3sqIx-19" value="" style="endArrow=none;html=1;rounded=0;entryX=0;entryY=0.5;entryDx=0;entryDy=0;exitX=1;exitY=0.3333333333333333;exitDx=0;exitDy=0;exitPerimeter=0;" edge="1" parent="1" source="0yJTxuCL6KUhxwQ3sqIx-9" target="0yJTxuCL6KUhxwQ3sqIx-12">
          <mxGeometry width="50" height="50" relative="1" as="geometry">
            <mxPoint x="240" y="175" as="sourcePoint" />
            <mxPoint x="360" y="145" as="targetPoint" />
          </mxGeometry>
        </mxCell>
        <mxCell id="0yJTxuCL6KUhxwQ3sqIx-20" value="" style="endArrow=none;html=1;rounded=0;entryX=0;entryY=0.5;entryDx=0;entryDy=0;exitX=1;exitY=0.3333333333333333;exitDx=0;exitDy=0;exitPerimeter=0;" edge="1" parent="1" source="0yJTxuCL6KUhxwQ3sqIx-9" target="0yJTxuCL6KUhxwQ3sqIx-13">
          <mxGeometry width="50" height="50" relative="1" as="geometry">
            <mxPoint x="240" y="160" as="sourcePoint" />
            <mxPoint x="360" y="200" as="targetPoint" />
          </mxGeometry>
        </mxCell>
        <mxCell id="0yJTxuCL6KUhxwQ3sqIx-21" value="" style="endArrow=none;html=1;rounded=0;exitX=1;exitY=0.5;exitDx=0;exitDy=0;entryX=0;entryY=0.3333333333333333;entryDx=0;entryDy=0;entryPerimeter=0;" edge="1" parent="1" source="0yJTxuCL6KUhxwQ3sqIx-15" target="0yJTxuCL6KUhxwQ3sqIx-10">
          <mxGeometry width="50" height="50" relative="1" as="geometry">
            <mxPoint x="610" y="190" as="sourcePoint" />
            <mxPoint x="720" y="160" as="targetPoint" />
          </mxGeometry>
        </mxCell>
        <mxCell id="0yJTxuCL6KUhxwQ3sqIx-22" value="" style="endArrow=none;html=1;rounded=0;entryX=0;entryY=0.5;entryDx=0;entryDy=0;exitX=1;exitY=0.3333333333333333;exitDx=0;exitDy=0;exitPerimeter=0;" edge="1" parent="1" source="0yJTxuCL6KUhxwQ3sqIx-9" target="0yJTxuCL6KUhxwQ3sqIx-14">
          <mxGeometry width="50" height="50" relative="1" as="geometry">
            <mxPoint x="250" y="240" as="sourcePoint" />
            <mxPoint x="370" y="350" as="targetPoint" />
          </mxGeometry>
        </mxCell>
        <mxCell id="0yJTxuCL6KUhxwQ3sqIx-23" value="" style="endArrow=none;html=1;rounded=0;entryX=0;entryY=0.3333333333333333;entryDx=0;entryDy=0;exitX=1;exitY=0.5;exitDx=0;exitDy=0;entryPerimeter=0;" edge="1" parent="1" source="0yJTxuCL6KUhxwQ3sqIx-16" target="0yJTxuCL6KUhxwQ3sqIx-10">
          <mxGeometry width="50" height="50" relative="1" as="geometry">
            <mxPoint x="630" y="170" as="sourcePoint" />
            <mxPoint x="750" y="280" as="targetPoint" />
          </mxGeometry>
        </mxCell>
        <mxCell id="0yJTxuCL6KUhxwQ3sqIx-24" value="Mark a task as completed" style="ellipse;whiteSpace=wrap;html=1;" vertex="1" parent="1">
          <mxGeometry x="350" y="400" width="110" height="40" as="geometry" />
        </mxCell>
        <mxCell id="0yJTxuCL6KUhxwQ3sqIx-25" value="" style="endArrow=none;html=1;rounded=0;entryX=0;entryY=0.5;entryDx=0;entryDy=0;exitX=1;exitY=0.3333333333333333;exitDx=0;exitDy=0;exitPerimeter=0;" edge="1" parent="1" source="0yJTxuCL6KUhxwQ3sqIx-9" target="0yJTxuCL6KUhxwQ3sqIx-24">
          <mxGeometry width="50" height="50" relative="1" as="geometry">
            <mxPoint x="220" y="240" as="sourcePoint" />
            <mxPoint x="340" y="440" as="targetPoint" />
          </mxGeometry>
        </mxCell>
      </root>
    </mxGraphModel>
  </diagram>
</mxfile>
